{"title":"Austin Powers - International Man of Mystery (1997) DVDRip XviD ","uid":8803607,"size":734504960,"categoryP":"video","categoryS":"movies","magnet":"?xt=urn:btih:3fb56aacafada7ca027123c6ee6e7b0deb0962c2&amp;dn=Austin+Powers+-+International+Man+of+Mystery+%281997%29+DVDRip+XviD+&amp;tr=udp%3A%2F%2Ftracker.openbittorrent.com%3A80&amp;tr=udp%3A%2F%2Fopen.demonii.com%3A1337&amp;tr=udp%3A%2F%2Ftracker.coppersurfer.tk%3A6969&amp;tr=udp%3A%2F%2Fexodus.desync.com%3A6969","seeders":1,"leechers":1,"uploader":"peaSoup","files":-1,"time":1376270842,"description":"Storyline\n\nAustin Powers is a 60's spy who is cryonically frozen and released in the 1990's. The world is a very different place for Powers. Unfortunately for Austin, everyone is no longer sex-mad. Although he may be in a different decade, his mission is still the same. He has teamed up with Vanessa Kensington to stop the evil Dr. Evil, who was also frozen in the past. Dr. Evil stole a nuclear weapon and is demanding a payment of (when he realises its the 90's) 100 billion dollars. Can Austin Powers stop this madman? or will he caught up with Evil's henchman, with names like Alotta Fagina and Random Task? Only time will tell!                    &lt;a href=&quot; http://imageshack.us/a/img853/61/7n6o.jpg&quot; rel=&quot;nofollow&quot; target=&quot;_NEW&quot;&gt; http://imageshack.us/a/img853/61/7n6o.jpg&lt;/a&gt;                                         &lt;a href=&quot; http://imageshack.us/a/img855/7214/4wag.jpg&quot; rel=&quot;nofollow&quot; target=&quot;_NEW&quot;&gt; http://imageshack.us/a/img855/7214/4wag.jpg&lt;/a&gt;                                       &lt;a href=&quot; http://imageshack.us/a/img15/706/nvyy.jpg&quot; rel=&quot;nofollow&quot; target=&quot;_NEW&quot;&gt; http://imageshack.us/a/img15/706/nvyy.jpg&lt;/a&gt;                                         &lt;a href=&quot; http://imageshack.us/a/img534/8099/ehaw.jpg&quot; rel=&quot;nofollow&quot; target=&quot;_NEW&quot;&gt; http://imageshack.us/a/img534/8099/ehaw.jpg&lt;/a&gt;                                        Format                                   : AVI\nFormat/Info                              : Audio Video Interleave\nFile size                                : 700 MiB\nDuration                                 : 1h 30mn\nOverall bit rate                         : 1 077 Kbps\nWriting application                      : VirtualDubMod 1.5.4.1 (build 2178/release)\nWriting library                          : VirtualDubMod build 2178/release\n\nVideo\nID                                       : 0\nFormat                                   : MPEG-4 Visual\nFormat profile                           : Advanced Simple@L5\nFormat settings, BVOP                    : 1\nFormat settings, QPel                    : No\nFormat settings, GMC                     : No warppoints\nFormat settings, Matrix                  : Custom\nCodec ID                                 : XVID\nCodec ID/Hint                            : XviD\nDuration                                 : 1h 30mn\nBit rate                                 : 623 Kbps\nWidth                                    : 608 pixels\nHeight                                   : 272 pixels\nDisplay aspect ratio                     : 2.25:1\nFrame rate                               : 25.000 fps\nColor space                              : YUV\nChroma subsampling                       : 4:2:0\nBit depth                                : 8 bits\nScan type                                : Progressive\nCompression mode                         : Lossy\nBits/(Pixel*Frame)                       : 0.151\nStream size                              : 405 MiB (58%)\nWriting library                          : XviD 1.2.1 (UTC 2008-12-04)\n\nAudio\nID                                       : 1\nFormat                                   : AC-3\nFormat/Info                              : Audio Coding 3\nMode extension                           : CM (complete main)\nFormat settings, Endianness              : Big\nCodec ID                                 : 2000\nDuration                                 : 1h 30mn\nBit rate mode                            : Constant\nBit rate                                 : 448 Kbps\nChannel(s)                               : 6 channels\nChannel positions                        : Front: L C R, Side: L R, LFE\nSampling rate                            : 48.0 KHz\nBit depth                                : 16 bits\nCompression mode                         : Lossy\nDelay relative to video                  : 440ms\nStream size                              : 291 MiB (42%)\nAlignment                                : Split accross interleaves\nInterleave, duration                     : 96 ms (2.40 video frames)\nInterleave, preload duration             : 96 ms\nLanguage                                 : English\n\n                                                                                  &lt;a href=&quot; http://imageshack.us/a/img850/5788/k58h.jpg&quot; rel=&quot;nofollow&quot; target=&quot;_NEW&quot;&gt; http://imageshack.us/a/img850/5788/k58h.jpg&lt;/a&gt;","torrent":{"xt":"urn:btih:3fb56aacafada7ca027123c6ee6e7b0deb0962c2","amp;dn":"Austin+Powers+-+International+Man+of+Mystery+%281997%29+DVDRip+XviD+","amp;tr":["udp%3A%2F%2Ftracker.openbittorrent.com%3A80","udp%3A%2F%2Fopen.demonii.com%3A1337","udp%3A%2F%2Ftracker.coppersurfer.tk%3A6969","udp%3A%2F%2Fexodus.desync.com%3A6969"],"infoHash":"3fb56aacafada7ca027123c6ee6e7b0deb0962c2","infoHashBuffer":{"type":"Buffer","data":[63,181,106,172,175,173,167,202,2,113,35,198,238,110,123,13,235,9,98,194]},"announce":[],"urlList":[]}}